<svg width="522" height="563" viewBox="0 0 522 563" fill="none" xmlns="http://www.w3.org/2000/svg">
<g filter="url(#filter0_i_269_7)">
<path d="M508.497 1.3599C518.099 1.3599 521.5 7.10172 522 9.97262L520 553.027L506.997 563C347.297 562.396 24.7957 561.187 12.3931 561.187C-0.00947285 561.187 -0.776424 543.011 0.390487 541.5L0.390611 456.474L2.89114 453.301C2.05763 452.092 0.390611 449.312 0.390611 447.862V440.609C12.7932 434.444 5.55836 425.045 0.390611 421.117V242.063C11.993 238.799 5.22496 231.637 0.390611 228.464V124.658L6.39187 118.312L0.390611 108.339V7.70612C0.390611 5.53027 5.72506 1.6621 8.39229 0C171.093 0.453301 498.895 1.3599 508.497 1.3599Z" fill="#705947"/>
</g>
<path d="M9.11914 2.50195C172.064 2.95591 498.899 3.86033 508.497 3.86035C516.578 3.86035 519.072 8.38218 519.499 10.2178L517.504 551.79L506.153 560.496C346.168 559.891 24.7873 558.687 12.3936 558.687C7.79077 558.687 5.13036 555.436 3.67188 551.111C2.95695 548.992 2.61781 546.806 2.52637 545.081C2.48064 544.218 2.49892 543.519 2.54883 543.037C2.56151 542.915 2.57563 542.818 2.58789 542.744L2.89062 542.353V457.341L4.85449 454.849L5.99609 453.4L4.94922 451.882C4.58332 451.351 4.01861 450.45 3.55762 449.541C3.32755 449.087 3.14423 448.672 3.02344 448.327C2.88952 447.945 2.89062 447.81 2.89062 447.861V442.101C5.54351 440.565 7.42517 438.767 8.54492 436.71C9.87648 434.264 9.98337 431.729 9.4043 429.417C8.42485 425.506 5.47163 422.107 2.89062 419.921V243.877C5.1089 243.052 6.82399 241.969 7.93555 240.546C9.46032 238.593 9.56278 236.39 8.93164 234.454C8.34051 232.641 7.1123 231.024 5.85645 229.729C4.92678 228.77 3.8946 227.899 2.89062 227.16V125.652L8.20801 120.029L9.5127 118.649L8.53418 117.022L2.89062 107.645V7.87695C2.92463 7.80912 3.016 7.63919 3.2373 7.35547C3.63883 6.84071 4.25525 6.22146 5.03027 5.54883C6.34298 4.40955 7.90678 3.29247 9.11914 2.50195Z" stroke="#7E6755" stroke-width="5"/>
<defs>
<filter id="filter0_i_269_7" x="0" y="0" width="522" height="567" filterUnits="userSpaceOnUse" color-interpolation-filters="sRGB">
<feFlood flood-opacity="0" result="BackgroundImageFix"/>
<feBlend mode="normal" in="SourceGraphic" in2="BackgroundImageFix" result="shape"/>
<feColorMatrix in="SourceAlpha" type="matrix" values="0 0 0 0 0 0 0 0 0 0 0 0 0 0 0 0 0 0 127 0" result="hardAlpha"/>
<feOffset dy="4"/>
<feGaussianBlur stdDeviation="2"/>
<feComposite in2="hardAlpha" operator="arithmetic" k2="-1" k3="1"/>
<feColorMatrix type="matrix" values="0 0 0 0 0 0 0 0 0 0 0 0 0 0 0 0 0 0 0.25 0"/>
<feBlend mode="normal" in2="shape" result="effect1_innerShadow_269_7"/>
</filter>
</defs>
</svg>
